<svg xmlns="http://www.w3.org/2000/svg" xmlns:xlink="http://www.w3.org/1999/xlink" width="500" zoomAndPan="magnify" viewBox="0 0 375 374.999991" height="500" preserveAspectRatio="xMidYMid meet" version="1.0"><defs><clipPath id="14f3e4952e"><path d="M 97 102 L 320 102 L 320 325 L 97 325 Z M 97 102 " clip-rule="nonzero"/></clipPath><clipPath id="bb941152cf"><path d="M 97.179688 125.792969 L 122.039062 100.933594 L 320.910156 299.808594 L 296.054688 324.667969 Z M 97.179688 125.792969 " clip-rule="nonzero"/></clipPath><clipPath id="bc8d17cf0c"><path d="M 97.179688 125.792969 L 121.402344 101.570312 L 319.675781 299.84375 L 295.453125 324.066406 Z M 97.179688 125.792969 " clip-rule="nonzero"/></clipPath><clipPath id="220ef09e8d"><path d="M 97 101 L 279 101 L 279 284 L 97 284 Z M 97 101 " clip-rule="nonzero"/></clipPath><clipPath id="19dda54a14"><path d="M 254.425781 101.574219 L 279.285156 126.433594 L 121.429688 284.289062 L 96.570312 259.429688 Z M 254.425781 101.574219 " clip-rule="nonzero"/></clipPath><clipPath id="1c78d9683f"><path d="M 254.425781 101.574219 L 278.648438 125.792969 L 121.398438 283.046875 L 97.175781 258.824219 Z M 254.425781 101.574219 " clip-rule="nonzero"/></clipPath><clipPath id="3b25e32ffc"><path d="M 64 81 L 170 81 L 170 188 L 64 188 Z M 64 81 " clip-rule="nonzero"/></clipPath><clipPath id="c52a677757"><path d="M 141.273438 81.550781 L 171.101562 111.382812 L 92.796875 189.6875 L 62.964844 159.855469 Z M 141.273438 81.550781 " clip-rule="nonzero"/></clipPath><clipPath id="4cbe87e78a"><path d="M 141.273438 81.550781 L 170.132812 110.410156 L 93.039062 187.5 L 64.179688 158.644531 Z M 141.273438 81.550781 " clip-rule="nonzero"/></clipPath><clipPath id="7d8d648f74"><path d="M 87 61 L 188 61 L 188 153 L 87 153 Z M 87 61 " clip-rule="nonzero"/></clipPath><clipPath id="301b1a42b7"><path d="M 170.285156 61.488281 L 188.46875 82.945312 L 103.984375 154.542969 L 85.800781 133.085938 Z M 170.285156 61.488281 " clip-rule="nonzero"/></clipPath><clipPath id="cefc00b7ab"><path d="M 170.285156 61.488281 L 187.496094 81.796875 L 104.320312 152.285156 L 87.109375 131.976562 Z M 170.285156 61.488281 " clip-rule="nonzero"/></clipPath><clipPath id="a2093b0cf8"><path d="M 226 81 L 302 81 L 302 157 L 226 157 Z M 226 81 " clip-rule="nonzero"/></clipPath><clipPath id="11f8f4a827"><path d="M 238.355469 81.550781 L 303.015625 146.210938 L 273.082031 176.144531 L 208.421875 111.484375 Z M 238.355469 81.550781 " clip-rule="nonzero"/></clipPath><clipPath id="d1814bf0cb"><path d="M 231.492188 130.960938 C 233.675781 135.316406 236.683594 139.746094 240.332031 143.394531 C 243.980469 147.042969 248.101562 149.945312 252.421875 152.09375 C 252.523438 152.128906 252.59375 152.199219 252.695312 152.230469 C 269.191406 160.039062 289.605469 157.523438 302.140625 145.332031 L 238.355469 81.550781 C 226.097656 94.152344 223.445312 114.429688 231.492188 130.960938 " clip-rule="nonzero"/></clipPath><clipPath id="1977554238"><path d="M 78 231 L 152 231 L 152 308 L 78 308 Z M 78 231 " clip-rule="nonzero"/></clipPath><clipPath id="88042f4c65"><path d="M 138.964844 307.871094 L 77.082031 240.550781 L 108.25 211.898438 L 170.132812 279.222656 Z M 138.964844 307.871094 " clip-rule="nonzero"/></clipPath><clipPath id="9c7b2d8885"><path d="M 147.902344 258.792969 C 145.902344 254.351562 143.085938 249.796875 139.59375 246 C 136.101562 242.199219 132.105469 239.128906 127.878906 236.800781 C 127.777344 236.761719 127.710938 236.6875 127.609375 236.648438 C 111.460938 228.152344 90.957031 229.808594 77.917969 241.460938 L 138.964844 307.871094 C 151.742188 295.796875 155.246094 275.648438 147.902344 258.792969 " clip-rule="nonzero"/></clipPath><clipPath id="4b20a584fe"><path d="M 57 233 L 118 233 L 118 290 L 57 290 Z M 57 233 " clip-rule="nonzero"/></clipPath><clipPath id="090b8acfe4"><path d="M 117.148438 242.816406 L 62.726562 290.410156 L 42.558594 267.351562 L 96.980469 219.753906 Z M 117.148438 242.816406 " clip-rule="nonzero"/></clipPath><clipPath id="84c86bae5d"><path d="M 80.261719 236.820312 C 76.773438 238.394531 73.160156 240.589844 70.085938 243.277344 C 67.007812 245.96875 64.460938 249.027344 62.464844 252.25 C 62.429688 252.324219 62.371094 252.375 62.335938 252.453125 C 55.019531 264.753906 55.203125 280.183594 63.386719 289.835938 L 117.148438 242.816406 C 108.628906 233.367188 93.476562 231.03125 80.261719 236.820312 " clip-rule="nonzero"/></clipPath><clipPath id="42926bc97c"><path d="M 227 60 L 288 60 L 288 117 L 227 117 Z M 227 60 " clip-rule="nonzero"/></clipPath><clipPath id="23e36b671e"><path d="M 287.449219 69.570312 L 233.027344 117.164062 L 212.859375 94.105469 L 267.28125 46.507812 Z M 287.449219 69.570312 " clip-rule="nonzero"/></clipPath><clipPath id="1de2646402"><path d="M 250.558594 63.578125 C 247.074219 65.152344 243.460938 67.34375 240.382812 70.03125 C 237.308594 72.722656 234.761719 75.78125 232.765625 79.003906 C 232.730469 79.078125 232.671875 79.128906 232.636719 79.207031 C 225.320312 91.507812 225.5 106.941406 233.683594 116.589844 L 287.449219 69.570312 C 278.929688 60.121094 263.777344 57.785156 250.558594 63.578125 " clip-rule="nonzero"/></clipPath><clipPath id="16005ade93"><path d="M 255 99 L 315 99 L 315 157 L 255 157 Z M 255 99 " clip-rule="nonzero"/></clipPath><clipPath id="25134fb0f1"><path d="M 255.285156 147.933594 L 307.804688 98.25 L 328.859375 120.503906 L 276.335938 170.191406 Z M 255.285156 147.933594 " clip-rule="nonzero"/></clipPath><clipPath id="48d86c5ab9"><path d="M 292.375 152.484375 C 295.800781 150.773438 299.324219 148.441406 302.292969 145.632812 C 305.261719 142.828125 307.6875 139.671875 309.558594 136.375 C 309.589844 136.296875 309.644531 136.242188 309.675781 136.164062 C 316.507812 123.585938 315.722656 108.175781 307.171875 98.851562 L 255.285156 147.933594 C 264.164062 157.042969 279.398438 158.785156 292.375 152.484375 " clip-rule="nonzero"/></clipPath><clipPath id="bee5fab7d6"><path d="M 87 266 L 147 266 L 147 324 L 87 324 Z M 87 266 " clip-rule="nonzero"/></clipPath><clipPath id="ea5263ef21"><path d="M 87.558594 315.242188 L 140.078125 265.554688 L 161.132812 287.8125 L 108.609375 337.496094 Z M 87.558594 315.242188 " clip-rule="nonzero"/></clipPath><clipPath id="11874bc912"><path d="M 124.652344 319.789062 C 128.074219 318.078125 131.597656 315.75 134.566406 312.941406 C 137.535156 310.132812 139.960938 306.976562 141.832031 303.679688 C 141.863281 303.601562 141.917969 303.546875 141.953125 303.46875 C 148.78125 290.890625 148 275.480469 139.445312 266.15625 L 87.558594 315.242188 C 96.441406 324.351562 111.671875 326.09375 124.652344 319.789062 " clip-rule="nonzero"/></clipPath></defs><path fill="#000000" d="M 311.308594 147.722656 C 313.03125 146 314.628906 144.175781 316.105469 142.238281 C 317.578125 140.304688 318.917969 138.28125 320.125 136.167969 C 321.328125 134.054688 322.382812 131.871094 323.296875 129.613281 C 324.207031 127.359375 324.960938 125.054688 325.5625 122.695312 C 326.164062 120.339844 326.605469 117.953125 326.882812 115.535156 C 327.164062 113.121094 327.28125 110.699219 327.238281 108.265625 C 327.191406 105.832031 326.984375 103.417969 326.613281 101.011719 C 326.246094 98.609375 325.714844 96.238281 325.027344 93.90625 C 324.957031 93.667969 324.871094 93.429688 324.769531 93.199219 C 324.667969 92.972656 324.554688 92.75 324.421875 92.535156 C 324.292969 92.320312 324.148438 92.113281 323.992188 91.917969 C 323.835938 91.722656 323.667969 91.535156 323.488281 91.363281 C 323.304688 91.1875 323.113281 91.027344 322.914062 90.875 C 322.710938 90.726562 322.5 90.589844 322.28125 90.46875 C 322.0625 90.347656 321.835938 90.238281 321.601562 90.144531 C 321.367188 90.050781 321.128906 89.972656 320.886719 89.914062 C 320.644531 89.851562 320.398438 89.804688 320.148438 89.773438 C 319.898438 89.742188 319.648438 89.730469 319.398438 89.730469 C 319.144531 89.734375 318.894531 89.75 318.648438 89.785156 C 318.398438 89.820312 318.152344 89.871094 317.910156 89.9375 C 317.667969 90.003906 317.429688 90.085938 317.199219 90.183594 C 316.96875 90.277344 316.742188 90.390625 316.523438 90.515625 C 316.308594 90.640625 316.101562 90.78125 315.902344 90.933594 C 315.703125 91.085938 315.511719 91.253906 315.335938 91.429688 L 291.46875 115.265625 L 270.40625 111.777344 L 266.914062 90.734375 L 290.769531 66.882812 C 290.949219 66.707031 291.117188 66.515625 291.273438 66.316406 C 291.429688 66.117188 291.570312 65.90625 291.699219 65.6875 C 291.828125 65.46875 291.941406 65.242188 292.039062 65.011719 C 292.136719 64.777344 292.222656 64.539062 292.289062 64.292969 C 292.355469 64.050781 292.40625 63.800781 292.441406 63.550781 C 292.476562 63.300781 292.496094 63.046875 292.496094 62.792969 C 292.5 62.539062 292.484375 62.289062 292.453125 62.035156 C 292.421875 61.785156 292.375 61.535156 292.3125 61.292969 C 292.246094 61.046875 292.167969 60.804688 292.074219 60.570312 C 291.976562 60.335938 291.867188 60.109375 291.742188 59.886719 C 291.617188 59.667969 291.480469 59.457031 291.328125 59.253906 C 291.175781 59.050781 291.007812 58.859375 290.832031 58.679688 C 290.652344 58.496094 290.464844 58.328125 290.265625 58.171875 C 290.066406 58.015625 289.855469 57.875 289.640625 57.746094 C 289.421875 57.617188 289.195312 57.503906 288.960938 57.402344 C 288.726562 57.304688 288.488281 57.21875 288.246094 57.152344 C 285.824219 56.4375 283.363281 55.894531 280.863281 55.523438 C 278.363281 55.148438 275.851562 54.953125 273.328125 54.929688 C 270.800781 54.910156 268.285156 55.0625 265.78125 55.390625 C 263.277344 55.71875 260.804688 56.21875 258.371094 56.894531 C 255.9375 57.566406 253.558594 58.402344 251.242188 59.40625 C 248.925781 60.410156 246.6875 61.570312 244.53125 62.886719 C 242.375 64.199219 240.320312 65.660156 238.367188 67.261719 C 236.414062 68.863281 234.582031 70.589844 232.871094 72.449219 C 231.160156 74.304688 229.585938 76.269531 228.148438 78.347656 C 226.710938 80.421875 225.425781 82.589844 224.289062 84.84375 C 223.15625 87.097656 222.179688 89.421875 221.371094 91.8125 C 220.558594 94.203125 219.917969 96.636719 219.445312 99.117188 C 218.976562 101.597656 218.679688 104.097656 218.554688 106.621094 C 218.433594 109.140625 218.484375 111.660156 218.714844 114.171875 C 218.945312 116.6875 219.34375 119.171875 219.921875 121.628906 C 220.496094 124.089844 221.238281 126.496094 222.152344 128.847656 L 190.394531 160.582031 L 159.941406 130.152344 L 173.207031 116.894531 C 173.613281 116.480469 173.953125 116.015625 174.222656 115.503906 C 174.492188 114.988281 174.679688 114.445312 174.789062 113.878906 C 174.898438 113.308594 174.925781 112.734375 174.867188 112.15625 C 174.804688 111.582031 174.664062 111.023438 174.441406 110.488281 C 173.890625 109.058594 173.523438 107.585938 173.332031 106.066406 C 173.140625 104.546875 173.136719 103.027344 173.320312 101.507812 C 173.5 99.988281 173.863281 98.515625 174.40625 97.082031 C 174.945312 95.652344 175.652344 94.304688 176.523438 93.046875 C 181.6875 86.507812 187.894531 81.183594 195.144531 77.070312 C 195.550781 76.855469 195.925781 76.601562 196.269531 76.296875 C 196.617188 75.996094 196.921875 75.660156 197.1875 75.285156 C 197.453125 74.910156 197.671875 74.511719 197.84375 74.085938 C 198.011719 73.660156 198.132812 73.222656 198.199219 72.769531 C 198.265625 72.3125 198.277344 71.859375 198.238281 71.402344 C 198.199219 70.945312 198.105469 70.5 197.957031 70.066406 C 197.8125 69.632812 197.617188 69.21875 197.371094 68.832031 C 197.128906 68.441406 196.84375 68.089844 196.515625 67.765625 C 196.214844 67.464844 165.632812 37.777344 131.351562 72.117188 L 49.664062 153.777344 C 49.394531 154.050781 49.152344 154.34375 48.941406 154.660156 C 48.730469 154.976562 48.550781 155.3125 48.402344 155.664062 C 48.257812 156.019531 48.148438 156.382812 48.074219 156.753906 C 48 157.128906 47.960938 157.507812 47.960938 157.890625 C 47.960938 158.269531 48 158.648438 48.074219 159.023438 C 48.148438 159.398438 48.257812 159.761719 48.402344 160.113281 C 48.550781 160.464844 48.730469 160.800781 48.941406 161.117188 C 49.152344 161.4375 49.394531 161.730469 49.664062 162 L 84.769531 197.082031 C 85.042969 197.351562 85.335938 197.59375 85.652344 197.804688 C 85.96875 198.015625 86.304688 198.195312 86.660156 198.339844 C 87.011719 198.488281 87.375 198.597656 87.75 198.671875 C 88.125 198.746094 88.503906 198.785156 88.886719 198.785156 C 89.265625 198.785156 89.644531 198.746094 90.019531 198.671875 C 90.394531 198.597656 90.757812 198.488281 91.109375 198.339844 C 91.464844 198.195312 91.800781 198.015625 92.117188 197.804688 C 92.433594 197.59375 92.726562 197.351562 93 197.082031 L 123.601562 166.429688 L 154.089844 196.859375 L 121.925781 229 C 119.570312 228.089844 117.164062 227.347656 114.703125 226.773438 C 112.242188 226.195312 109.753906 225.796875 107.238281 225.566406 C 104.722656 225.339844 102.203125 225.285156 99.679688 225.40625 C 97.15625 225.53125 94.65625 225.828125 92.171875 226.296875 C 89.691406 226.769531 87.253906 227.410156 84.863281 228.21875 C 82.46875 229.03125 80.144531 230.003906 77.886719 231.136719 C 75.632812 232.269531 73.464844 233.558594 71.386719 234.992188 C 69.308594 236.429688 67.34375 238.003906 65.484375 239.710938 C 63.625 241.421875 61.894531 243.253906 60.292969 245.203125 C 58.691406 247.15625 57.230469 249.210938 55.914062 251.363281 C 54.597656 253.519531 53.4375 255.753906 52.433594 258.070312 C 51.429688 260.386719 50.589844 262.761719 49.917969 265.195312 C 49.246094 267.628906 48.746094 270.09375 48.414062 272.597656 C 48.085938 275.101562 47.933594 277.613281 47.953125 280.136719 C 47.976562 282.664062 48.171875 285.171875 48.546875 287.667969 C 48.917969 290.167969 49.460938 292.625 50.175781 295.046875 C 50.246094 295.289062 50.332031 295.523438 50.433594 295.753906 C 50.535156 295.980469 50.652344 296.203125 50.78125 296.417969 C 50.910156 296.632812 51.054688 296.839844 51.210938 297.035156 C 51.367188 297.230469 51.539062 297.417969 51.71875 297.589844 C 51.898438 297.765625 52.089844 297.929688 52.292969 298.078125 C 52.492188 298.226562 52.703125 298.363281 52.921875 298.484375 C 53.144531 298.609375 53.367188 298.714844 53.601562 298.808594 C 53.835938 298.902344 54.074219 298.980469 54.316406 299.042969 C 54.5625 299.105469 54.808594 299.148438 55.058594 299.179688 C 55.304688 299.210938 55.554688 299.222656 55.808594 299.222656 C 56.058594 299.21875 56.308594 299.203125 56.558594 299.167969 C 56.804688 299.132812 57.050781 299.082031 57.292969 299.015625 C 57.535156 298.949219 57.773438 298.867188 58.003906 298.773438 C 58.238281 298.675781 58.460938 298.5625 58.679688 298.4375 C 58.894531 298.3125 59.105469 298.171875 59.304688 298.019531 C 59.503906 297.867188 59.691406 297.699219 59.871094 297.523438 L 83.734375 273.6875 L 104.796875 277.175781 L 108.289062 298.222656 L 84.433594 322.070312 C 84.257812 322.246094 84.089844 322.4375 83.9375 322.636719 C 83.785156 322.832031 83.644531 323.042969 83.519531 323.257812 C 83.394531 323.476562 83.28125 323.699219 83.183594 323.933594 C 83.085938 324.164062 83.007812 324.402344 82.941406 324.644531 C 82.875 324.886719 82.824219 325.128906 82.789062 325.378906 C 82.753906 325.628906 82.734375 325.878906 82.734375 326.128906 C 82.730469 326.378906 82.746094 326.628906 82.777344 326.878906 C 82.804688 327.128906 82.851562 327.375 82.914062 327.617188 C 82.976562 327.859375 83.054688 328.097656 83.148438 328.332031 C 83.242188 328.566406 83.347656 328.792969 83.472656 329.011719 C 83.59375 329.230469 83.730469 329.441406 83.878906 329.640625 C 84.027344 329.84375 84.191406 330.035156 84.367188 330.214844 C 84.539062 330.394531 84.726562 330.566406 84.921875 330.722656 C 85.117188 330.878906 85.324219 331.019531 85.539062 331.152344 C 85.753906 331.28125 85.976562 331.398438 86.207031 331.496094 C 86.4375 331.597656 86.671875 331.683594 86.914062 331.753906 C 89.335938 332.46875 91.796875 333.011719 94.292969 333.386719 C 96.792969 333.757812 99.304688 333.953125 101.832031 333.976562 C 104.359375 333.996094 106.871094 333.84375 109.378906 333.515625 C 111.882812 333.1875 114.351562 332.6875 116.785156 332.011719 C 119.222656 331.339844 121.597656 330.503906 123.914062 329.5 C 126.234375 328.496094 128.472656 327.335938 130.628906 326.019531 C 132.78125 324.707031 134.835938 323.246094 136.789062 321.644531 C 138.742188 320.042969 140.574219 318.316406 142.285156 316.460938 C 144 314.601562 145.574219 312.636719 147.011719 310.558594 C 148.445312 308.484375 149.734375 306.320312 150.867188 304.0625 C 152.003906 301.808594 152.976562 299.484375 153.789062 297.09375 C 154.597656 294.703125 155.238281 292.269531 155.710938 289.789062 C 156.183594 287.308594 156.480469 284.808594 156.601562 282.289062 C 156.726562 279.765625 156.671875 277.25 156.441406 274.734375 C 156.214844 272.21875 155.8125 269.734375 155.238281 267.277344 C 154.660156 264.820312 153.917969 262.414062 153.007812 260.058594 L 185.273438 227.964844 L 283.394531 326.011719 C 284.570312 327.191406 285.847656 328.242188 287.230469 329.167969 C 288.617188 330.09375 290.078125 330.875 291.617188 331.511719 C 293.15625 332.148438 294.742188 332.628906 296.375 332.953125 C 298.007812 333.273438 299.660156 333.433594 301.324219 333.429688 C 303.03125 333.425781 304.726562 333.257812 306.398438 332.921875 C 308.074219 332.582031 309.699219 332.085938 311.277344 331.429688 C 312.851562 330.769531 314.351562 329.964844 315.765625 329.011719 C 317.183594 328.0625 318.496094 326.980469 319.699219 325.765625 C 320.285156 325.175781 320.84375 324.554688 321.371094 323.910156 C 321.898438 323.265625 322.394531 322.59375 322.855469 321.898438 C 323.316406 321.203125 323.746094 320.488281 324.136719 319.753906 C 324.527344 319.015625 324.882812 318.261719 325.199219 317.492188 C 325.519531 316.71875 325.796875 315.933594 326.039062 315.136719 C 326.28125 314.339844 326.480469 313.53125 326.644531 312.710938 C 326.804688 311.894531 326.929688 311.070312 327.007812 310.238281 C 327.089844 309.410156 327.132812 308.578125 327.132812 307.746094 C 327.132812 306.910156 327.089844 306.078125 327.007812 305.25 C 326.929688 304.417969 326.804688 303.59375 326.644531 302.777344 C 326.480469 301.957031 326.28125 301.148438 326.039062 300.351562 C 325.796875 299.554688 325.519531 298.769531 325.199219 297.996094 C 324.882812 297.226562 324.527344 296.472656 324.136719 295.734375 C 323.746094 295 323.316406 294.285156 322.855469 293.589844 C 322.394531 292.894531 321.898438 292.222656 321.371094 291.578125 C 320.84375 290.933594 320.285156 290.3125 319.699219 289.722656 L 221.523438 191.6875 L 253.277344 159.953125 C 255.71875 160.894531 258.21875 161.65625 260.769531 162.234375 C 263.324219 162.816406 265.902344 163.210938 268.511719 163.421875 C 271.121094 163.628906 273.734375 163.652344 276.34375 163.484375 C 278.957031 163.316406 281.542969 162.964844 284.105469 162.421875 C 286.667969 161.882812 289.175781 161.164062 291.632812 160.261719 C 294.089844 159.359375 296.472656 158.285156 298.773438 157.042969 C 301.078125 155.796875 303.277344 154.394531 305.378906 152.832031 C 307.476562 151.273438 309.453125 149.566406 311.308594 147.722656 Z M 139.566406 80.347656 C 157.929688 62.011719 173.882812 66.570312 182.296875 71.523438 C 176.5 75.617188 171.457031 80.488281 167.167969 86.140625 C 165.882812 87.925781 164.808594 89.832031 163.945312 91.851562 C 163.082031 93.875 162.449219 95.96875 162.046875 98.132812 C 161.644531 100.292969 161.480469 102.476562 161.5625 104.671875 C 161.640625 106.871094 161.957031 109.035156 162.515625 111.164062 L 109.953125 163.664062 L 83.085938 136.800781 Z M 88.890625 184.710938 L 62.011719 157.859375 L 74.8125 145.070312 L 101.679688 171.929688 Z M 142.046875 254.664062 C 141.621094 255.085938 141.265625 255.5625 140.988281 256.09375 C 140.710938 256.628906 140.519531 257.1875 140.414062 257.78125 C 140.3125 258.371094 140.296875 258.964844 140.378906 259.558594 C 140.457031 260.15625 140.625 260.722656 140.882812 261.265625 C 141.828125 263.25 142.613281 265.289062 143.242188 267.390625 C 143.875 269.492188 144.339844 271.628906 144.640625 273.804688 C 144.941406 275.976562 145.074219 278.160156 145.039062 280.351562 C 145.003906 282.546875 144.804688 284.726562 144.433594 286.886719 C 144.0625 289.050781 143.527344 291.171875 142.832031 293.253906 C 142.136719 295.332031 141.285156 297.347656 140.277344 299.296875 C 139.269531 301.246094 138.121094 303.109375 136.828125 304.882812 C 135.53125 306.652344 134.113281 308.316406 132.5625 309.871094 C 130.457031 311.925781 128.171875 313.75 125.703125 315.34375 C 123.234375 316.941406 120.628906 318.277344 117.894531 319.351562 C 115.15625 320.425781 112.339844 321.21875 109.441406 321.726562 C 106.546875 322.238281 103.628906 322.457031 100.691406 322.382812 L 118.691406 304.359375 C 119.355469 303.695312 119.832031 302.917969 120.121094 302.023438 C 120.410156 301.128906 120.476562 300.21875 120.320312 299.289062 L 115.585938 271.222656 C 115.484375 270.625 115.296875 270.054688 115.019531 269.515625 C 114.742188 268.976562 114.386719 268.492188 113.960938 268.066406 C 113.53125 267.636719 113.046875 267.285156 112.507812 267.007812 C 111.96875 266.730469 111.398438 266.542969 110.800781 266.441406 L 82.710938 261.710938 C 81.785156 261.554688 80.871094 261.621094 79.976562 261.910156 C 79.082031 262.195312 78.300781 262.671875 77.636719 263.335938 L 59.601562 281.324219 C 59.566406 280.410156 59.558594 279.496094 59.582031 278.582031 C 59.605469 277.667969 59.65625 276.753906 59.738281 275.84375 C 59.820312 274.933594 59.933594 274.023438 60.074219 273.121094 C 60.210938 272.21875 60.382812 271.320312 60.578125 270.425781 C 60.777344 269.53125 61.003906 268.644531 61.257812 267.765625 C 61.511719 266.890625 61.796875 266.019531 62.105469 265.160156 C 62.417969 264.296875 62.757812 263.449219 63.121094 262.609375 C 63.488281 261.769531 63.878906 260.945312 64.296875 260.132812 C 64.714844 259.316406 65.160156 258.519531 65.632812 257.734375 C 66.101562 256.949219 66.597656 256.179688 67.117188 255.425781 C 67.636719 254.671875 68.179688 253.9375 68.746094 253.21875 C 69.3125 252.5 69.902344 251.800781 70.511719 251.121094 C 71.125 250.441406 71.757812 249.78125 72.414062 249.140625 C 73.066406 248.5 73.742188 247.882812 74.433594 247.285156 C 75.128906 246.6875 75.839844 246.113281 76.574219 245.5625 C 77.304688 245.011719 78.050781 244.488281 78.816406 243.984375 C 79.582031 243.480469 80.359375 243.003906 81.15625 242.550781 C 81.953125 242.097656 82.761719 241.671875 83.585938 241.269531 C 84.40625 240.871094 85.242188 240.496094 86.089844 240.148438 C 86.9375 239.800781 87.792969 239.484375 88.660156 239.191406 C 89.53125 238.898438 90.40625 238.636719 91.289062 238.398438 C 92.175781 238.164062 93.066406 237.957031 93.964844 237.777344 C 94.863281 237.601562 95.765625 237.449219 96.671875 237.328125 C 97.578125 237.210938 98.492188 237.117188 99.402344 237.054688 C 100.316406 236.996094 101.230469 236.960938 102.148438 236.957031 C 103.0625 236.957031 103.976562 236.980469 104.890625 237.035156 C 105.804688 237.09375 106.714844 237.175781 107.625 237.292969 C 108.53125 237.40625 109.4375 237.546875 110.335938 237.71875 C 111.234375 237.890625 112.128906 238.09375 113.015625 238.324219 C 113.898438 238.550781 114.777344 238.808594 115.648438 239.09375 C 116.515625 239.382812 117.375 239.695312 118.226562 240.035156 C 119.074219 240.375 119.914062 240.746094 120.738281 241.140625 C 121.28125 241.394531 121.851562 241.5625 122.449219 241.644531 C 123.042969 241.722656 123.636719 241.710938 124.230469 241.605469 C 124.820312 241.503906 125.382812 241.3125 125.914062 241.03125 C 126.449219 240.753906 126.925781 240.402344 127.347656 239.976562 L 162.257812 205.09375 L 176.933594 219.753906 Z M 311.167969 317.789062 C 310.523438 318.433594 309.824219 319.007812 309.066406 319.511719 C 308.3125 320.019531 307.511719 320.445312 306.671875 320.792969 C 305.828125 321.140625 304.960938 321.402344 304.070312 321.578125 C 303.175781 321.757812 302.277344 321.847656 301.367188 321.847656 C 300.457031 321.847656 299.554688 321.757812 298.660156 321.578125 C 297.769531 321.402344 296.902344 321.140625 296.058594 320.792969 C 295.21875 320.445312 294.421875 320.019531 293.664062 319.511719 C 292.90625 319.007812 292.207031 318.433594 291.5625 317.789062 L 131.863281 158.210938 L 151.714844 138.371094 L 311.414062 297.964844 C 312.0625 298.621094 312.636719 299.335938 313.144531 300.105469 C 313.648438 300.878906 314.074219 301.691406 314.417969 302.546875 C 314.761719 303.402344 315.019531 304.28125 315.191406 305.1875 C 315.359375 306.09375 315.441406 307.007812 315.429688 307.929688 C 315.417969 308.851562 315.316406 309.761719 315.121094 310.664062 C 314.929688 311.566406 314.652344 312.4375 314.285156 313.285156 C 313.921875 314.132812 313.476562 314.933594 312.949219 315.691406 C 312.425781 316.449219 311.832031 317.148438 311.167969 317.789062 Z M 247.832031 148.953125 L 213.296875 183.464844 L 198.621094 168.800781 L 233.160156 134.289062 C 233.585938 133.867188 233.9375 133.390625 234.214844 132.859375 C 234.496094 132.324219 234.683594 131.765625 234.789062 131.171875 C 234.894531 130.582031 234.90625 129.988281 234.828125 129.394531 C 234.746094 128.796875 234.578125 128.230469 234.324219 127.6875 C 233.378906 125.707031 232.589844 123.664062 231.960938 121.5625 C 231.332031 119.460938 230.863281 117.324219 230.5625 115.148438 C 230.261719 112.976562 230.128906 110.792969 230.164062 108.601562 C 230.199219 106.40625 230.402344 104.226562 230.773438 102.066406 C 231.140625 99.902344 231.675781 97.78125 232.371094 95.699219 C 233.070312 93.621094 233.921875 91.605469 234.925781 89.65625 C 235.933594 87.707031 237.085938 85.84375 238.378906 84.070312 C 239.671875 82.300781 241.09375 80.636719 242.640625 79.082031 C 244.75 77.035156 247.039062 75.214844 249.511719 73.625 C 251.980469 72.03125 254.585938 70.699219 257.320312 69.625 C 260.054688 68.550781 262.871094 67.757812 265.765625 67.242188 C 268.660156 66.726562 271.574219 66.503906 274.515625 66.570312 L 256.511719 84.59375 C 255.847656 85.257812 255.371094 86.035156 255.082031 86.929688 C 254.796875 87.824219 254.730469 88.734375 254.882812 89.664062 L 259.621094 117.734375 C 259.71875 118.332031 259.910156 118.898438 260.1875 119.4375 C 260.464844 119.976562 260.816406 120.460938 261.246094 120.886719 C 261.671875 121.316406 262.15625 121.667969 262.695312 121.945312 C 263.234375 122.222656 263.804688 122.410156 264.402344 122.511719 L 292.492188 127.246094 C 293.421875 127.398438 294.332031 127.332031 295.226562 127.042969 C 296.121094 126.757812 296.902344 126.28125 297.566406 125.617188 L 315.601562 107.628906 C 315.640625 108.542969 315.644531 109.457031 315.621094 110.371094 C 315.601562 111.285156 315.546875 112.199219 315.464844 113.109375 C 315.386719 114.019531 315.273438 114.929688 315.132812 115.832031 C 314.996094 116.734375 314.824219 117.636719 314.628906 118.527344 C 314.429688 119.421875 314.203125 120.308594 313.949219 121.1875 C 313.695312 122.066406 313.414062 122.933594 313.101562 123.792969 C 312.792969 124.65625 312.453125 125.503906 312.085938 126.34375 C 311.722656 127.183594 311.332031 128.007812 310.914062 128.824219 C 310.492188 129.636719 310.050781 130.433594 309.578125 131.21875 C 309.109375 132.003906 308.617188 132.773438 308.097656 133.527344 C 307.578125 134.28125 307.035156 135.015625 306.46875 135.734375 C 305.898438 136.453125 305.3125 137.152344 304.699219 137.835938 C 304.085938 138.515625 303.453125 139.175781 302.800781 139.816406 C 302.144531 140.453125 301.472656 141.074219 300.777344 141.667969 C 300.085938 142.265625 299.371094 142.839844 298.640625 143.390625 C 297.910156 143.941406 297.160156 144.46875 296.398438 144.972656 C 295.632812 145.472656 294.851562 145.953125 294.058594 146.40625 C 293.261719 146.855469 292.453125 147.285156 291.628906 147.683594 C 290.804688 148.085938 289.972656 148.460938 289.125 148.804688 C 288.277344 149.152344 287.417969 149.472656 286.550781 149.765625 C 285.683594 150.054688 284.808594 150.320312 283.925781 150.554688 C 283.039062 150.792969 282.148438 151 281.25 151.175781 C 280.351562 151.355469 279.449219 151.503906 278.542969 151.625 C 277.632812 151.746094 276.722656 151.835938 275.8125 151.898438 C 274.898438 151.960938 273.984375 151.992188 273.066406 151.996094 C 272.152344 152 271.238281 151.972656 270.324219 151.917969 C 269.410156 151.863281 268.5 151.777344 267.589844 151.664062 C 266.683594 151.550781 265.777344 151.40625 264.878906 151.234375 C 263.980469 151.0625 263.085938 150.859375 262.203125 150.632812 C 261.316406 150.402344 260.4375 150.144531 259.566406 149.859375 C 258.699219 149.574219 257.839844 149.257812 256.988281 148.917969 C 256.140625 148.578125 255.300781 148.207031 254.476562 147.8125 C 253.933594 147.550781 253.359375 147.378906 252.761719 147.296875 C 252.164062 147.210938 251.566406 147.222656 250.972656 147.324219 C 250.378906 147.425781 249.8125 147.617188 249.277344 147.894531 C 248.738281 148.171875 248.257812 148.527344 247.832031 148.953125 Z M 247.832031 148.953125 " fill-opacity="1" fill-rule="nonzero"/><path fill="#ffde59" d="M 305.246094 149.492188 C 306.886719 147.851562 308.410156 146.105469 309.816406 144.261719 C 311.222656 142.414062 312.5 140.480469 313.648438 138.460938 C 314.796875 136.441406 315.804688 134.355469 316.671875 132.203125 C 317.539062 130.046875 318.257812 127.847656 318.832031 125.59375 C 319.40625 123.34375 319.824219 121.066406 320.09375 118.757812 C 320.359375 116.449219 320.472656 114.136719 320.429688 111.8125 C 320.386719 109.492188 320.1875 107.183594 319.835938 104.886719 C 319.484375 102.589844 318.980469 100.328125 318.324219 98.101562 C 318.253906 97.871094 318.171875 97.648438 318.078125 97.425781 C 317.980469 97.207031 317.871094 96.996094 317.746094 96.789062 C 317.621094 96.585938 317.484375 96.390625 317.335938 96.203125 C 317.1875 96.015625 317.027344 95.835938 316.855469 95.671875 C 316.679688 95.503906 316.5 95.351562 316.308594 95.207031 C 316.113281 95.0625 315.914062 94.933594 315.703125 94.816406 C 315.496094 94.699219 315.28125 94.597656 315.058594 94.507812 C 314.835938 94.421875 314.609375 94.347656 314.375 94.285156 C 314.144531 94.226562 313.910156 94.183594 313.671875 94.152344 C 313.433594 94.125 313.195312 94.113281 312.957031 94.113281 C 312.714844 94.117188 312.476562 94.132812 312.242188 94.167969 C 312.003906 94.199219 311.769531 94.246094 311.539062 94.308594 C 311.308594 94.375 311.082031 94.453125 310.859375 94.542969 C 310.640625 94.636719 310.425781 94.742188 310.21875 94.863281 C 310.011719 94.984375 309.8125 95.117188 309.621094 95.261719 C 309.433594 95.410156 309.253906 95.566406 309.082031 95.738281 L 286.335938 118.5 L 266.257812 115.167969 L 262.929688 95.070312 L 285.667969 72.292969 C 285.839844 72.125 286 71.945312 286.148438 71.753906 C 286.296875 71.5625 286.433594 71.363281 286.554688 71.152344 C 286.675781 70.945312 286.785156 70.726562 286.878906 70.503906 C 286.972656 70.28125 287.050781 70.054688 287.117188 69.820312 C 287.179688 69.585938 287.226562 69.351562 287.261719 69.109375 C 287.292969 68.871094 287.3125 68.628906 287.3125 68.386719 C 287.316406 68.148438 287.300781 67.90625 287.273438 67.664062 C 287.242188 67.425781 287.199219 67.1875 287.136719 66.953125 C 287.074219 66.71875 287 66.488281 286.910156 66.265625 C 286.820312 66.042969 286.714844 65.824219 286.59375 65.613281 C 286.476562 65.402344 286.34375 65.199219 286.199219 65.007812 C 286.054688 64.8125 285.894531 64.632812 285.726562 64.457031 C 285.558594 64.285156 285.378906 64.125 285.1875 63.976562 C 284.996094 63.828125 284.796875 63.691406 284.589844 63.566406 C 284.382812 63.445312 284.167969 63.335938 283.945312 63.238281 C 283.722656 63.144531 283.496094 63.066406 283.261719 63 C 280.953125 62.316406 278.605469 61.796875 276.226562 61.445312 C 273.84375 61.089844 271.449219 60.902344 269.039062 60.878906 C 266.632812 60.859375 264.234375 61.003906 261.847656 61.320312 C 259.460938 61.632812 257.105469 62.109375 254.785156 62.753906 C 252.464844 63.394531 250.199219 64.195312 247.988281 65.15625 C 245.78125 66.113281 243.648438 67.21875 241.59375 68.476562 C 239.539062 69.734375 237.578125 71.125 235.71875 72.65625 C 233.855469 74.183594 232.109375 75.835938 230.480469 77.609375 C 228.847656 79.382812 227.347656 81.257812 225.976562 83.242188 C 224.605469 85.222656 223.378906 87.292969 222.296875 89.445312 C 221.214844 91.597656 220.289062 93.816406 219.515625 96.101562 C 218.742188 98.382812 218.132812 100.710938 217.683594 103.078125 C 217.234375 105.445312 216.949219 107.835938 216.832031 110.242188 C 216.714844 112.648438 216.765625 115.054688 216.984375 117.457031 C 217.203125 119.855469 217.585938 122.230469 218.132812 124.578125 C 218.683594 126.925781 219.390625 129.222656 220.261719 131.472656 L 189.988281 161.777344 L 160.960938 132.714844 L 173.609375 120.054688 C 173.996094 119.660156 174.316406 119.214844 174.574219 118.726562 C 174.832031 118.234375 175.011719 117.71875 175.117188 117.171875 C 175.21875 116.628906 175.246094 116.082031 175.1875 115.53125 C 175.132812 114.980469 174.996094 114.449219 174.785156 113.9375 C 174.257812 112.574219 173.90625 111.164062 173.726562 109.714844 C 173.542969 108.265625 173.539062 106.8125 173.714844 105.363281 C 173.886719 103.910156 174.230469 102.5 174.75 101.132812 C 175.265625 99.765625 175.9375 98.480469 176.769531 97.28125 C 181.691406 91.035156 187.609375 85.949219 194.515625 82.023438 C 194.902344 81.820312 195.261719 81.574219 195.589844 81.285156 C 195.921875 80.996094 196.210938 80.675781 196.464844 80.316406 C 196.71875 79.960938 196.925781 79.578125 197.089844 79.171875 C 197.25 78.765625 197.363281 78.347656 197.429688 77.914062 C 197.492188 77.480469 197.503906 77.046875 197.464844 76.609375 C 197.425781 76.175781 197.339844 75.75 197.199219 75.332031 C 197.058594 74.917969 196.875 74.527344 196.640625 74.15625 C 196.410156 73.785156 196.136719 73.445312 195.824219 73.136719 C 195.535156 72.851562 166.386719 44.5 133.710938 77.292969 L 55.84375 155.28125 C 55.585938 155.539062 55.359375 155.816406 55.15625 156.121094 C 54.953125 156.425781 54.78125 156.742188 54.644531 157.082031 C 54.503906 157.417969 54.398438 157.765625 54.328125 158.121094 C 54.257812 158.480469 54.222656 158.839844 54.222656 159.203125 C 54.222656 159.570312 54.257812 159.929688 54.328125 160.289062 C 54.398438 160.644531 54.503906 160.992188 54.644531 161.328125 C 54.78125 161.667969 54.953125 161.984375 55.15625 162.289062 C 55.359375 162.59375 55.585938 162.871094 55.84375 163.128906 L 89.308594 196.632812 C 89.566406 196.890625 89.847656 197.121094 90.148438 197.324219 C 90.453125 197.527344 90.773438 197.695312 91.109375 197.835938 C 91.445312 197.976562 91.792969 198.082031 92.148438 198.152344 C 92.503906 198.222656 92.867188 198.257812 93.230469 198.257812 C 93.59375 198.257812 93.953125 198.222656 94.3125 198.152344 C 94.667969 198.082031 95.015625 197.976562 95.351562 197.835938 C 95.6875 197.695312 96.007812 197.527344 96.3125 197.324219 C 96.613281 197.121094 96.894531 196.890625 97.152344 196.632812 L 126.324219 167.363281 L 155.382812 196.421875 L 124.726562 227.117188 C 122.480469 226.246094 120.183594 225.535156 117.839844 224.988281 C 115.496094 224.4375 113.125 224.054688 110.726562 223.835938 C 108.328125 223.617188 105.925781 223.566406 103.519531 223.683594 C 101.117188 223.800781 98.730469 224.085938 96.363281 224.535156 C 94 224.984375 91.675781 225.597656 89.394531 226.371094 C 87.117188 227.144531 84.898438 228.074219 82.75 229.15625 C 80.597656 230.238281 78.53125 231.46875 76.550781 232.839844 C 74.570312 234.210938 72.695312 235.710938 70.925781 237.347656 C 69.152344 238.980469 67.503906 240.726562 65.976562 242.589844 C 64.449219 244.453125 63.058594 246.414062 61.804688 248.472656 C 60.550781 250.53125 59.441406 252.664062 58.484375 254.878906 C 57.527344 257.089844 56.730469 259.355469 56.085938 261.679688 C 55.445312 264.003906 54.96875 266.359375 54.65625 268.75 C 54.339844 271.140625 54.195312 273.542969 54.214844 275.953125 C 54.238281 278.363281 54.425781 280.761719 54.777344 283.144531 C 55.132812 285.53125 55.652344 287.878906 56.332031 290.191406 C 56.402344 290.421875 56.484375 290.644531 56.578125 290.863281 C 56.675781 291.082031 56.785156 291.296875 56.910156 291.5 C 57.035156 291.707031 57.171875 291.902344 57.320312 292.089844 C 57.46875 292.277344 57.628906 292.453125 57.800781 292.621094 C 57.976562 292.785156 58.15625 292.941406 58.347656 293.085938 C 58.542969 293.226562 58.742188 293.355469 58.953125 293.472656 C 59.160156 293.589844 59.375 293.695312 59.597656 293.78125 C 59.820312 293.871094 60.046875 293.945312 60.28125 294.003906 C 60.511719 294.0625 60.746094 294.109375 60.984375 294.136719 C 61.222656 294.167969 61.460938 294.179688 61.699219 294.179688 C 61.941406 294.175781 62.179688 294.160156 62.417969 294.125 C 62.652344 294.09375 62.886719 294.042969 63.117188 293.980469 C 63.347656 293.917969 63.574219 293.839844 63.796875 293.746094 C 64.015625 293.65625 64.230469 293.546875 64.4375 293.429688 C 64.644531 293.308594 64.84375 293.175781 65.035156 293.027344 C 65.222656 292.882812 65.402344 292.722656 65.574219 292.554688 L 88.320312 269.789062 L 108.398438 273.121094 L 111.726562 293.222656 L 88.988281 315.996094 C 88.820312 316.167969 88.660156 316.347656 88.515625 316.535156 C 88.367188 316.726562 88.234375 316.925781 88.117188 317.132812 C 87.996094 317.339844 87.890625 317.554688 87.796875 317.777344 C 87.703125 317.996094 87.625 318.222656 87.5625 318.453125 C 87.5 318.6875 87.453125 318.921875 87.417969 319.15625 C 87.386719 319.394531 87.367188 319.632812 87.367188 319.875 C 87.363281 320.113281 87.378906 320.351562 87.40625 320.589844 C 87.4375 320.828125 87.480469 321.0625 87.539062 321.296875 C 87.597656 321.527344 87.671875 321.753906 87.761719 321.976562 C 87.851562 322.199219 87.953125 322.417969 88.070312 322.625 C 88.1875 322.835938 88.316406 323.035156 88.460938 323.230469 C 88.601562 323.421875 88.757812 323.605469 88.921875 323.777344 C 89.089844 323.949219 89.265625 324.109375 89.453125 324.257812 C 89.640625 324.410156 89.835938 324.546875 90.039062 324.667969 C 90.246094 324.792969 90.457031 324.90625 90.675781 325 C 90.894531 325.097656 91.121094 325.179688 91.351562 325.246094 C 93.660156 325.929688 96.003906 326.449219 98.386719 326.804688 C 100.769531 327.160156 103.164062 327.347656 105.570312 327.367188 C 107.980469 327.386719 110.375 327.242188 112.765625 326.925781 C 115.152344 326.613281 117.503906 326.136719 119.828125 325.492188 C 122.148438 324.851562 124.414062 324.050781 126.621094 323.09375 C 128.832031 322.132812 130.964844 321.027344 133.019531 319.769531 C 135.074219 318.515625 137.03125 317.121094 138.894531 315.59375 C 140.753906 314.0625 142.5 312.410156 144.132812 310.640625 C 145.765625 308.867188 147.265625 306.988281 148.636719 305.003906 C 150.003906 303.023438 151.230469 300.953125 152.3125 298.800781 C 153.394531 296.648438 154.324219 294.429688 155.097656 292.144531 C 155.871094 289.863281 156.480469 287.539062 156.929688 285.167969 C 157.378906 282.800781 157.664062 280.414062 157.777344 278.003906 C 157.894531 275.597656 157.84375 273.191406 157.628906 270.792969 C 157.410156 268.390625 157.027344 266.015625 156.476562 263.667969 C 155.929688 261.324219 155.21875 259.023438 154.351562 256.777344 L 185.109375 226.128906 L 278.636719 319.761719 C 279.757812 320.886719 280.976562 321.894531 282.296875 322.777344 C 283.613281 323.660156 285.007812 324.40625 286.476562 325.015625 C 287.941406 325.625 289.453125 326.082031 291.011719 326.390625 C 292.570312 326.699219 294.140625 326.851562 295.730469 326.847656 C 297.355469 326.84375 298.96875 326.679688 300.566406 326.359375 C 302.164062 326.039062 303.710938 325.5625 305.214844 324.933594 C 306.71875 324.308594 308.144531 323.539062 309.496094 322.628906 C 310.847656 321.71875 312.09375 320.683594 313.242188 319.527344 C 313.804688 318.964844 314.335938 318.371094 314.835938 317.753906 C 315.339844 317.136719 315.8125 316.496094 316.253906 315.832031 C 316.691406 315.171875 317.097656 314.488281 317.472656 313.785156 C 317.847656 313.082031 318.183594 312.359375 318.488281 311.625 C 318.789062 310.886719 319.058594 310.136719 319.285156 309.375 C 319.515625 308.613281 319.707031 307.84375 319.863281 307.0625 C 320.019531 306.28125 320.132812 305.492188 320.210938 304.699219 C 320.289062 303.90625 320.328125 303.113281 320.328125 302.316406 C 320.328125 301.519531 320.289062 300.726562 320.210938 299.933594 C 320.132812 299.140625 320.019531 298.351562 319.863281 297.570312 C 319.707031 296.789062 319.515625 296.019531 319.285156 295.257812 C 319.058594 294.492188 318.789062 293.746094 318.488281 293.007812 C 318.183594 292.273438 317.847656 291.550781 317.472656 290.847656 C 317.097656 290.144531 316.691406 289.460938 316.253906 288.796875 C 315.8125 288.136719 315.339844 287.496094 314.835938 286.878906 C 314.335938 286.261719 313.804688 285.667969 313.242188 285.105469 L 219.660156 191.480469 L 249.929688 161.175781 C 252.257812 162.074219 254.640625 162.800781 257.074219 163.355469 C 259.503906 163.910156 261.964844 164.289062 264.453125 164.488281 C 266.941406 164.6875 269.429688 164.707031 271.917969 164.546875 C 274.410156 164.386719 276.875 164.050781 279.316406 163.535156 C 281.757812 163.019531 284.148438 162.332031 286.492188 161.46875 C 288.835938 160.609375 291.101562 159.585938 293.296875 158.394531 C 295.492188 157.207031 297.589844 155.867188 299.59375 154.375 C 301.59375 152.886719 303.476562 151.257812 305.246094 149.492188 Z M 141.539062 85.152344 C 159.042969 67.640625 174.25 71.996094 182.269531 76.726562 C 176.746094 80.636719 171.941406 85.289062 167.851562 90.683594 C 166.625 92.390625 165.601562 94.207031 164.777344 96.140625 C 163.953125 98.074219 163.351562 100.070312 162.96875 102.136719 C 162.585938 104.203125 162.429688 106.285156 162.503906 108.382812 C 162.582031 110.484375 162.882812 112.546875 163.414062 114.582031 L 113.3125 164.71875 L 87.699219 139.066406 Z M 93.234375 184.816406 L 67.613281 159.175781 L 79.816406 146.960938 L 105.425781 172.613281 Z M 143.902344 251.625 C 143.496094 252.027344 143.160156 252.484375 142.894531 252.992188 C 142.628906 253.5 142.449219 254.035156 142.347656 254.601562 C 142.25 255.164062 142.238281 255.730469 142.3125 256.300781 C 142.390625 256.867188 142.550781 257.414062 142.792969 257.929688 C 143.695312 259.824219 144.445312 261.773438 145.046875 263.777344 C 145.644531 265.785156 146.089844 267.828125 146.378906 269.902344 C 146.664062 271.976562 146.792969 274.0625 146.757812 276.15625 C 146.726562 278.253906 146.53125 280.332031 146.179688 282.398438 C 145.824219 284.464844 145.316406 286.488281 144.652344 288.476562 C 143.988281 290.464844 143.175781 292.386719 142.21875 294.25 C 141.257812 296.113281 140.160156 297.890625 138.929688 299.582031 C 137.695312 301.273438 136.339844 302.863281 134.863281 304.347656 C 132.859375 306.308594 130.679688 308.050781 128.324219 309.574219 C 125.972656 311.097656 123.488281 312.375 120.878906 313.398438 C 118.273438 314.425781 115.585938 315.183594 112.828125 315.671875 C 110.066406 316.15625 107.285156 316.367188 104.484375 316.296875 L 121.640625 299.085938 C 122.277344 298.449219 122.730469 297.707031 123.003906 296.851562 C 123.277344 295.996094 123.34375 295.128906 123.195312 294.242188 L 118.679688 267.4375 C 118.585938 266.867188 118.40625 266.324219 118.140625 265.808594 C 117.875 265.292969 117.539062 264.832031 117.132812 264.421875 C 116.722656 264.015625 116.261719 263.675781 115.746094 263.414062 C 115.234375 263.148438 114.691406 262.96875 114.121094 262.871094 L 87.347656 258.351562 C 86.460938 258.207031 85.59375 258.269531 84.738281 258.542969 C 83.886719 258.816406 83.144531 259.273438 82.511719 259.90625 L 65.316406 277.085938 C 65.285156 276.214844 65.277344 275.339844 65.300781 274.46875 C 65.320312 273.59375 65.371094 272.722656 65.449219 271.851562 C 65.527344 270.980469 65.632812 270.113281 65.765625 269.25 C 65.898438 268.386719 66.0625 267.53125 66.25 266.675781 C 66.4375 265.824219 66.652344 264.976562 66.898438 264.136719 C 67.140625 263.300781 67.410156 262.46875 67.707031 261.648438 C 68.003906 260.824219 68.324219 260.015625 68.671875 259.214844 C 69.019531 258.410156 69.394531 257.621094 69.792969 256.847656 C 70.191406 256.070312 70.617188 255.304688 71.066406 254.554688 C 71.511719 253.804688 71.984375 253.070312 72.480469 252.351562 C 72.976562 251.632812 73.492188 250.929688 74.03125 250.242188 C 74.574219 249.558594 75.136719 248.890625 75.71875 248.238281 C 76.300781 247.589844 76.90625 246.960938 77.527344 246.347656 C 78.152344 245.738281 78.796875 245.148438 79.457031 244.578125 C 80.117188 244.007812 80.796875 243.460938 81.496094 242.933594 C 82.191406 242.40625 82.902344 241.90625 83.632812 241.425781 C 84.363281 240.945312 85.105469 240.488281 85.863281 240.054688 C 86.621094 239.625 87.394531 239.214844 88.179688 238.832031 C 88.964844 238.453125 89.757812 238.09375 90.566406 237.761719 C 91.375 237.429688 92.191406 237.125 93.019531 236.847656 C 93.84375 236.570312 94.679688 236.316406 95.523438 236.089844 C 96.367188 235.867188 97.214844 235.667969 98.070312 235.5 C 98.929688 235.328125 99.789062 235.183594 100.652344 235.070312 C 101.519531 234.957031 102.386719 234.867188 103.257812 234.808594 C 104.128906 234.75 105 234.71875 105.871094 234.714844 C 106.746094 234.710938 107.617188 234.738281 108.488281 234.789062 C 109.359375 234.84375 110.226562 234.925781 111.09375 235.035156 C 111.957031 235.140625 112.820312 235.277344 113.675781 235.445312 C 114.535156 235.609375 115.386719 235.800781 116.230469 236.019531 C 117.074219 236.238281 117.910156 236.484375 118.742188 236.757812 C 119.570312 237.03125 120.390625 237.328125 121.199219 237.65625 C 122.007812 237.980469 122.808594 238.332031 123.59375 238.707031 C 124.113281 238.953125 124.65625 239.113281 125.222656 239.191406 C 125.789062 239.265625 126.355469 239.253906 126.921875 239.15625 C 127.484375 239.054688 128.019531 238.871094 128.527344 238.605469 C 129.035156 238.339844 129.492188 238.003906 129.894531 237.597656 L 163.171875 204.285156 L 177.15625 218.289062 Z M 305.113281 311.910156 C 304.5 312.523438 303.832031 313.074219 303.109375 313.554688 C 302.386719 314.039062 301.625 314.445312 300.824219 314.777344 C 300.023438 315.109375 299.195312 315.359375 298.34375 315.53125 C 297.496094 315.699219 296.636719 315.785156 295.769531 315.785156 C 294.898438 315.785156 294.039062 315.699219 293.191406 315.53125 C 292.339844 315.359375 291.511719 315.109375 290.710938 314.777344 C 289.910156 314.445312 289.148438 314.039062 288.425781 313.554688 C 287.703125 313.074219 287.035156 312.523438 286.421875 311.910156 L 134.199219 159.511719 L 153.121094 140.566406 L 305.34375 292.976562 C 305.960938 293.605469 306.511719 294.285156 306.996094 295.023438 C 307.476562 295.757812 307.882812 296.535156 308.210938 297.351562 C 308.539062 298.167969 308.785156 299.007812 308.945312 299.875 C 309.109375 300.738281 309.183594 301.613281 309.171875 302.492188 C 309.160156 303.371094 309.0625 304.242188 308.882812 305.105469 C 308.699219 305.964844 308.433594 306.800781 308.082031 307.609375 C 307.734375 308.417969 307.3125 309.183594 306.8125 309.90625 C 306.3125 310.632812 305.746094 311.296875 305.113281 311.910156 Z M 244.738281 150.671875 L 211.820312 183.628906 L 197.832031 169.625 L 230.753906 136.667969 C 231.160156 136.265625 231.496094 135.808594 231.761719 135.300781 C 232.027344 134.792969 232.207031 134.253906 232.308594 133.691406 C 232.40625 133.125 232.417969 132.558594 232.34375 131.992188 C 232.265625 131.421875 232.105469 130.878906 231.863281 130.359375 C 230.960938 128.46875 230.210938 126.519531 229.609375 124.511719 C 229.011719 122.503906 228.566406 120.464844 228.277344 118.390625 C 227.992188 116.3125 227.863281 114.226562 227.898438 112.132812 C 227.929688 110.039062 228.125 107.957031 228.476562 105.894531 C 228.832031 103.828125 229.339844 101.800781 230.003906 99.816406 C 230.667969 97.828125 231.480469 95.902344 232.4375 94.042969 C 233.398438 92.179688 234.496094 90.402344 235.726562 88.710938 C 236.960938 87.015625 238.316406 85.425781 239.792969 83.941406 C 241.800781 81.988281 243.984375 80.25 246.339844 78.730469 C 248.695312 77.210938 251.175781 75.9375 253.785156 74.910156 C 256.390625 73.886719 259.074219 73.128906 261.832031 72.636719 C 264.59375 72.144531 267.371094 71.933594 270.171875 71.996094 L 253.015625 89.207031 C 252.378906 89.839844 251.925781 90.585938 251.652344 91.4375 C 251.378906 92.292969 251.3125 93.164062 251.460938 94.046875 L 255.976562 120.855469 C 256.070312 121.425781 256.25 121.96875 256.515625 122.484375 C 256.78125 122.996094 257.117188 123.460938 257.523438 123.867188 C 257.933594 124.277344 258.394531 124.613281 258.910156 124.878906 C 259.421875 125.144531 259.964844 125.324219 260.535156 125.417969 L 287.308594 129.9375 C 288.195312 130.085938 289.0625 130.023438 289.917969 129.75 C 290.769531 129.472656 291.511719 129.019531 292.144531 128.382812 L 309.339844 111.207031 C 309.375 112.078125 309.378906 112.953125 309.359375 113.824219 C 309.335938 114.699219 309.285156 115.570312 309.207031 116.441406 C 309.132812 117.308594 309.027344 118.175781 308.890625 119.039062 C 308.757812 119.902344 308.597656 120.761719 308.410156 121.613281 C 308.222656 122.46875 308.003906 123.3125 307.761719 124.152344 C 307.519531 124.992188 307.25 125.824219 306.953125 126.644531 C 306.660156 127.464844 306.335938 128.277344 305.988281 129.078125 C 305.640625 129.878906 305.265625 130.667969 304.867188 131.445312 C 304.46875 132.222656 304.046875 132.984375 303.597656 133.734375 C 303.148438 134.484375 302.679688 135.21875 302.183594 135.941406 C 301.6875 136.660156 301.171875 137.363281 300.628906 138.046875 C 300.089844 138.734375 299.527344 139.402344 298.945312 140.050781 C 298.363281 140.703125 297.757812 141.332031 297.136719 141.945312 C 296.511719 142.554688 295.871094 143.144531 295.207031 143.714844 C 294.546875 144.285156 293.867188 144.832031 293.171875 145.359375 C 292.472656 145.886719 291.761719 146.386719 291.03125 146.867188 C 290.304688 147.347656 289.558594 147.804688 288.800781 148.238281 C 288.042969 148.667969 287.269531 149.078125 286.488281 149.460938 C 285.703125 149.84375 284.90625 150.199219 284.097656 150.53125 C 283.292969 150.863281 282.472656 151.167969 281.648438 151.445312 C 280.820312 151.722656 279.984375 151.976562 279.140625 152.203125 C 278.300781 152.425781 277.449219 152.625 276.59375 152.792969 C 275.738281 152.964844 274.878906 153.109375 274.011719 153.222656 C 273.148438 153.335938 272.28125 153.425781 271.410156 153.484375 C 270.539062 153.542969 269.667969 153.574219 268.792969 153.578125 C 267.921875 153.582031 267.050781 153.554688 266.179688 153.503906 C 265.308594 153.449219 264.4375 153.367188 263.574219 153.257812 C 262.707031 153.148438 261.847656 153.011719 260.988281 152.847656 C 260.132812 152.683594 259.28125 152.492188 258.4375 152.273438 C 257.59375 152.054688 256.753906 151.808594 255.925781 151.535156 C 255.097656 151.261719 254.277344 150.964844 253.46875 150.636719 C 252.660156 150.3125 251.859375 149.960938 251.074219 149.582031 C 250.554688 149.332031 250.007812 149.167969 249.4375 149.089844 C 248.871094 149.007812 248.300781 149.015625 247.734375 149.113281 C 247.164062 149.210938 246.625 149.394531 246.117188 149.660156 C 245.605469 149.925781 245.144531 150.261719 244.738281 150.671875 Z M 244.738281 150.671875 " fill-opacity="1" fill-rule="nonzero"/><g clip-path="url(#14f3e4952e)"><g clip-path="url(#bb941152cf)"><g clip-path="url(#bc8d17cf0c)"><path fill="#ffde59" d="M 97.179688 125.792969 L 120.796875 102.175781 L 319.667969 301.050781 L 296.054688 324.667969 Z M 97.179688 125.792969 " fill-opacity="1" fill-rule="nonzero"/></g></g></g><g clip-path="url(#220ef09e8d)"><g clip-path="url(#19dda54a14)"><g clip-path="url(#1c78d9683f)"><path fill="#ffde59" d="M 254.425781 101.574219 L 278.042969 125.1875 L 120.1875 283.042969 L 96.570312 259.429688 Z M 254.425781 101.574219 " fill-opacity="1" fill-rule="nonzero"/></g></g></g><g clip-path="url(#3b25e32ffc)"><g clip-path="url(#c52a677757)"><g clip-path="url(#4cbe87e78a)"><path fill="#ffde59" d="M 141.273438 81.550781 L 169.859375 110.136719 L 92.796875 187.203125 L 64.207031 158.613281 Z M 141.273438 81.550781 " fill-opacity="1" fill-rule="nonzero"/></g></g></g><g clip-path="url(#7d8d648f74)"><g clip-path="url(#301b1a42b7)"><g clip-path="url(#cefc00b7ab)"><path fill="#ffde59" d="M 170.285156 61.488281 L 187.332031 81.605469 L 104.1875 152.066406 L 87.140625 131.949219 Z M 170.285156 61.488281 " fill-opacity="1" fill-rule="nonzero"/></g></g></g><g clip-path="url(#a2093b0cf8)"><g clip-path="url(#11f8f4a827)"><g clip-path="url(#d1814bf0cb)"><path fill="#ffde59" d="M 238.355469 81.550781 L 301.820312 145.011719 L 271.882812 174.949219 L 208.421875 111.484375 Z M 238.355469 81.550781 " fill-opacity="1" fill-rule="nonzero"/></g></g></g><g clip-path="url(#1977554238)"><g clip-path="url(#88042f4c65)"><g clip-path="url(#9c7b2d8885)"><path fill="#ffde59" d="M 138.964844 307.871094 L 78.226562 241.796875 L 109.394531 213.148438 L 170.132812 279.222656 Z M 138.964844 307.871094 " fill-opacity="1" fill-rule="nonzero"/></g></g></g><g clip-path="url(#4b20a584fe)"><g clip-path="url(#090b8acfe4)"><g clip-path="url(#84c86bae5d)"><path fill="#ffde59" d="M 117.148438 242.816406 L 63.648438 289.605469 L 43.480469 266.542969 L 96.980469 219.753906 Z M 117.148438 242.816406 " fill-opacity="1" fill-rule="nonzero"/></g></g></g><g clip-path="url(#42926bc97c)"><g clip-path="url(#23e36b671e)"><g clip-path="url(#1de2646402)"><path fill="#ffde59" d="M 287.449219 69.570312 L 233.949219 116.359375 L 213.78125 93.300781 L 267.28125 46.507812 Z M 287.449219 69.570312 " fill-opacity="1" fill-rule="nonzero"/></g></g></g><g clip-path="url(#16005ade93)"><g clip-path="url(#25134fb0f1)"><g clip-path="url(#48d86c5ab9)"><path fill="#ffde59" d="M 255.285156 147.933594 L 306.914062 99.09375 L 327.96875 121.347656 L 276.335938 170.191406 Z M 255.285156 147.933594 " fill-opacity="1" fill-rule="nonzero"/></g></g></g><g clip-path="url(#bee5fab7d6)"><g clip-path="url(#ea5263ef21)"><g clip-path="url(#11874bc912)"><path fill="#ffde59" d="M 87.558594 315.242188 L 139.1875 266.398438 L 160.242188 288.652344 L 108.609375 337.496094 Z M 87.558594 315.242188 " fill-opacity="1" fill-rule="nonzero"/></g></g></g></svg>